{"glyphs":{":":{"x_min":0,"x_max":600,"ha":600,"o":"m 376 310 b 376 327 359 368 306 368 b 269 368 237 341 237 308 b 237 276 270 249 308 249 b 344 249 376 274 376 310 z m 376 47 b 376 64 359 105 306 105 b 269 105 237 78 237 45 b 237 13 270 -14 308 -14 b 344 -14 376 11 376 47 z"},"$":{"x_min":0,"x_max":600,"ha":600,"o":"m 501 167 b 501 228 470 270 370 296 l 269 322 b 212 337 165 362 165 414 b 165 469 237 497 295 497 b 341 497 388 482 427 460 l 427 413 l 481 413 l 481 563 l 427 563 l 427 517 b 396 533 364 547 329 551 l 329 655 l 274 655 l 274 550 b 210 549 112 511 112 407 l 112 406 b 112 384 113 326 204 291 b 267 266 337 262 399 233 b 427 220 448 201 448 163 b 448 85 358 68 292 68 b 243 68 194 79 158 110 l 158 166 l 104 166 l 104 7 l 158 7 l 158 48 b 194 28 231 16 274 14 l 274 -137 l 329 -137 l 329 15 b 441 24 501 90 501 167 z"},"?":{"x_min":0,"x_max":600,"ha":600,"o":"m 481 416 b 481 443 474 470 463 491 b 430 555 359 584 286 584 b 227 584 168 568 121 550 l 121 440 l 175 440 l 175 502 b 209 518 249 529 289 529 b 401 529 428 456 428 418 b 428 320 316 299 243 285 l 243 180 l 298 180 l 298 239 b 372 259 481 296 481 416 z m 340 46 b 340 77 312 107 272 107 b 234 107 202 80 202 47 b 202 17 231 -12 273 -12 b 305 -12 340 12 340 46 z"},"<":{"x_min":0,"x_max":600,"ha":600,"o":"m 491 -1 l 491 54 l 139 201 l 491 348 l 491 404 l 93 240 l 93 162 z"},"'":{"x_min":0,"x_max":600,"ha":600,"o":"m 347 572 l 252 572 l 274 280 l 325 280 z"},"=":{"x_min":0,"x_max":600,"ha":600,"o":"m 514 266 l 514 321 l 85 321 l 85 266 z m 514 110 l 514 164 l 85 164 l 85 110 z"},"a":{"x_min":0,"x_max":600,"ha":600,"o":"m 552 0 l 552 55 l 470 55 l 470 296 b 470 323 468 351 453 378 b 432 417 382 447 297 447 b 229 447 160 427 102 403 l 116 349 b 147 364 219 391 287 391 b 321 391 354 388 383 370 b 409 354 416 319 416 286 l 416 255 b 372 262 323 269 275 269 b 111 269 58 182 58 123 b 58 58 115 -12 217 -12 b 293 -12 362 31 417 84 l 417 0 z m 416 150 b 366 90 299 43 218 43 b 157 43 114 84 114 122 b 114 149 130 171 150 185 b 187 211 241 213 288 213 b 332 213 374 207 416 200 z"},"L":{"x_min":0,"x_max":600,"ha":600,"o":"m 554 0 l 554 257 l 499 257 l 499 55 l 213 55 l 213 517 l 338 517 l 338 572 l 52 572 l 52 517 l 158 517 l 158 55 l 52 55 l 52 0 z"},"3":{"x_min":0,"x_max":600,"ha":600,"o":"m 472 154 b 472 255 394 285 360 293 b 399 321 438 350 438 428 b 438 461 429 486 418 506 b 394 548 340 584 273 584 b 206 584 147 561 94 527 l 112 483 b 134 496 194 530 259 530 b 345 530 384 477 384 426 b 384 376 344 314 237 314 l 234 314 l 234 259 l 250 259 b 279 259 308 257 336 250 b 371 241 419 211 419 156 b 419 90 354 43 261 43 b 203 43 143 61 95 79 l 81 32 l 117 18 b 178 -6 249 -12 271 -12 b 365 -12 472 41 472 154 z"},";":{"x_min":0,"x_max":600,"ha":600,"o":"m 389 310 b 389 327 372 368 319 368 b 282 368 250 341 250 308 b 250 276 283 249 321 249 b 357 249 389 274 389 310 z m 359 121 l 263 121 l 191 -129 l 255 -129 z"},"J":{"x_min":0,"x_max":600,"ha":600,"o":"m 577 517 l 577 572 l 198 572 l 198 517 l 396 517 l 396 187 b 396 140 392 91 351 63 b 328 48 300 42 271 42 b 245 42 106 49 106 172 l 106 273 l 51 273 l 51 48 l 87 33 b 144 9 211 -12 277 -12 b 418 -12 449 76 449 158 l 449 517 z"},"V":{"x_min":0,"x_max":600,"ha":600,"o":"m 599 517 l 599 572 l 386 572 l 386 517 l 480 517 l 311 49 l 138 517 l 230 517 l 230 572 l 10 572 l 10 517 l 80 517 l 271 0 l 351 0 l 538 517 z"},"\"":{"x_min":0,"x_max":600,"ha":600,"o":"m 437 572 l 343 572 l 366 280 l 415 280 z m 263 572 l 167 572 l 190 280 l 240 280 z"},"7":{"x_min":0,"x_max":600,"ha":600,"o":"m 503 514 l 503 572 l 101 572 l 101 435 l 155 435 l 155 517 l 444 517 l 248 0 l 309 0 z"},"S":{"x_min":0,"x_max":600,"ha":600,"o":"m 523 159 b 523 214 490 257 449 276 b 380 307 288 293 219 323 b 177 341 152 367 152 415 b 152 479 217 529 307 529 b 359 529 412 511 448 476 l 448 387 l 502 387 l 502 572 l 448 572 l 448 542 b 409 570 356 584 304 584 b 161 584 98 486 98 402 b 98 307 176 275 194 267 b 275 232 383 260 449 205 b 463 192 468 171 468 150 b 468 85 407 43 303 43 b 240 43 176 61 127 101 l 127 179 l 72 179 l 72 -1 l 127 -1 l 127 39 b 189 -4 266 -12 312 -12 b 424 -12 523 42 523 159 z"},"}":{"x_min":0,"x_max":600,"ha":600,"o":"m 420 241 l 420 293 b 349 327 330 357 330 488 l 330 608 b 330 641 326 673 312 702 b 288 751 229 762 180 764 l 180 709 b 237 705 275 690 275 624 l 275 450 b 275 401 276 323 352 267 b 276 217 275 129 275 80 l 275 -90 b 275 -156 237 -171 180 -175 l 180 -230 b 229 -228 288 -217 312 -168 b 326 -139 330 -107 330 -74 l 330 46 b 330 177 347 207 420 241 z"},"Z":{"x_min":0,"x_max":600,"ha":600,"o":"m 526 0 l 526 217 l 471 217 l 471 55 l 156 55 l 525 520 l 525 572 l 114 572 l 114 370 l 168 370 l 168 517 l 450 517 l 82 54 l 82 0 z"},"x":{"x_min":0,"x_max":600,"ha":600,"o":"m 579 0 l 579 55 l 503 55 l 333 228 l 478 379 l 555 379 l 555 434 l 369 434 l 369 379 l 410 379 l 299 264 l 187 379 l 237 379 l 237 434 l 40 434 l 40 379 l 119 379 l 266 229 l 96 55 l 22 55 l 22 0 l 228 0 l 228 55 l 164 55 l 300 193 l 434 55 l 372 55 l 372 0 z"},")":{"x_min":0,"x_max":600,"ha":600,"o":"m 316 286 b 316 387 264 539 194 648 l 140 648 l 168 596 b 221 497 261 391 261 269 b 261 125 189 -13 142 -97 l 195 -97 b 253 -7 316 139 316 286 z"},"&":{"x_min":0,"x_max":600,"ha":600,"o":"m 567 0 l 567 55 l 443 55 l 418 92 b 445 129 462 174 471 216 l 550 216 l 550 270 l 429 270 b 429 228 414 175 387 136 l 245 338 b 241 343 209 384 209 423 b 209 450 238 485 295 485 b 334 485 372 468 402 446 l 422 493 b 383 520 337 539 286 539 b 204 539 154 488 154 431 b 154 393 172 359 195 324 b 195 324 202 313 206 307 b 99 249 93 164 93 133 b 93 75 130 -12 237 -12 b 292 -12 346 10 383 50 l 418 0 z m 354 94 b 330 72 301 43 246 43 b 196 43 148 78 148 145 b 148 214 195 250 233 267 z"},"_":{"x_min":0,"x_max":600,"ha":600,"o":"m 600 -249 l 600 -198 l 0 -198 l 0 -249 z"},"v":{"x_min":0,"x_max":600,"ha":600,"o":"m 586 379 l 586 434 l 376 434 l 376 379 l 449 379 l 304 54 l 159 379 l 233 379 l 233 434 l 15 434 l 15 379 l 101 379 l 272 0 l 336 0 l 507 379 z"},"O":{"x_min":0,"x_max":600,"ha":600,"o":"m 560 287 b 560 381 509 585 303 585 b 126 585 39 428 39 287 b 39 123 144 -12 302 -12 b 464 -12 560 123 560 287 z m 505 285 b 505 158 434 43 303 43 b 173 43 94 158 94 285 b 94 374 148 530 301 530 b 468 530 505 362 505 285 z"},"(":{"x_min":0,"x_max":600,"ha":600,"o":"m 462 648 l 408 648 b 338 539 286 387 286 286 b 286 139 349 -7 407 -97 l 460 -97 b 413 -13 341 125 341 269 b 341 391 381 497 434 596 z"},"C":{"x_min":0,"x_max":600,"ha":600,"o":"m 557 61 l 533 108 b 480 69 413 42 345 42 b 219 42 122 134 122 292 b 122 477 259 530 334 530 b 398 530 457 499 501 452 l 501 371 l 555 371 l 555 584 l 501 584 l 501 523 l 471 542 b 429 569 380 584 327 584 b 170 584 66 450 66 297 b 66 132 157 -13 340 -13 b 419 -13 496 16 557 61 z"},"W":{"x_min":0,"x_max":600,"ha":600,"o":"m 581 517 l 581 572 l 381 572 l 381 517 l 481 517 l 440 101 l 322 454 l 282 454 l 166 99 l 121 517 l 219 517 l 219 572 l 20 572 l 20 517 l 66 517 l 124 0 l 188 0 l 301 352 l 419 0 l 480 0 l 536 517 z"},"A":{"x_min":0,"x_max":600,"ha":600,"o":"m 603 0 l 603 55 l 549 55 l 341 572 l 96 572 l 96 517 l 239 517 l 56 55 l -6 55 l -6 0 l 206 0 l 206 55 l 115 55 l 158 169 l 447 169 l 492 55 l 394 55 l 394 0 z m 425 224 l 180 224 l 299 533 z"},"f":{"x_min":0,"x_max":600,"ha":600,"o":"m 519 613 b 486 618 413 626 373 626 b 336 626 226 625 208 542 b 204 527 204 505 204 486 l 204 434 l 98 434 l 98 379 l 204 379 l 204 55 l 98 55 l 98 0 l 476 0 l 476 55 l 260 55 l 260 379 l 476 379 l 476 434 l 260 434 l 260 486 b 260 532 261 571 375 571 b 413 571 468 565 504 559 z"},"Q":{"x_min":0,"x_max":600,"ha":600,"o":"m 564 280 b 564 342 550 403 523 453 b 486 520 413 584 305 584 b 215 584 130 534 83 450 b 57 403 42 347 42 280 b 42 137 111 29 209 1 l 237 -7 b 210 -34 181 -61 147 -78 l 162 -123 b 208 -99 239 -84 286 -84 b 332 -84 371 -107 412 -120 b 425 -124 439 -126 453 -126 b 489 -126 524 -113 551 -91 l 529 -47 b 508 -61 482 -71 456 -71 b 446 -71 436 -70 427 -66 b 387 -50 347 -30 301 -30 b 286 -30 271 -35 256 -37 b 270 -30 282 -23 294 -12 l 310 -12 b 456 -12 564 92 564 280 z m 509 279 b 509 80 372 43 300 43 b 210 43 98 94 98 279 b 98 335 110 381 130 417 b 172 494 246 529 304 529 b 360 529 437 501 482 413 b 502 375 509 327 509 279 z"},"w":{"x_min":0,"x_max":600,"ha":600,"o":"m 589 379 l 589 434 l 431 434 l 431 379 l 502 379 l 418 76 l 332 350 l 285 350 l 201 78 l 115 379 l 188 379 l 188 434 l 25 434 l 25 379 l 59 379 l 167 0 l 230 0 l 309 251 l 388 0 l 449 0 l 554 379 z"},"-":{"x_min":0,"x_max":600,"ha":600,"o":"m 459 221 l 459 276 l 139 276 l 139 221 z"},"E":{"x_min":0,"x_max":600,"ha":600,"o":"m 540 0 l 540 191 l 485 191 l 485 55 l 190 55 l 190 258 l 350 258 l 350 185 l 405 185 l 405 387 l 350 387 l 350 313 l 190 313 l 190 517 l 479 517 l 479 381 l 534 381 l 534 572 l 55 572 l 55 517 l 136 517 l 136 55 l 57 55 l 57 0 z"},"s":{"x_min":0,"x_max":600,"ha":600,"o":"m 516 131 b 516 214 457 235 388 240 b 319 245 227 242 181 271 b 166 281 155 299 155 317 b 155 379 243 392 286 392 b 341 392 396 375 438 348 l 438 289 l 492 289 l 492 447 l 438 447 l 438 407 b 393 434 339 447 283 447 b 173 447 101 394 101 308 b 101 283 108 256 127 239 b 180 191 257 195 331 189 b 375 185 427 192 454 154 b 459 147 461 131 461 125 b 461 51 351 43 314 43 b 251 43 196 62 148 99 l 148 158 l 93 158 l 93 -12 l 148 -12 l 148 33 b 197 10 246 -12 326 -12 b 437 -12 516 45 516 131 z"},">":{"x_min":0,"x_max":600,"ha":600,"o":"m 522 163 l 522 241 l 124 404 l 124 349 l 476 202 l 124 55 l 124 0 z"},"l":{"x_min":0,"x_max":600,"ha":600,"o":"m 501 0 l 501 55 l 327 55 l 327 627 l 102 627 l 102 572 l 272 572 l 272 55 l 97 55 l 97 0 z"},"8":{"x_min":0,"x_max":600,"ha":600,"o":"m 492 156 b 492 245 431 280 395 294 b 430 312 474 342 474 425 b 474 492 434 585 300 585 b 196 585 119 527 119 423 b 119 361 147 319 195 294 b 173 282 104 242 104 152 b 104 67 173 -13 298 -13 b 421 -13 492 63 492 156 z m 420 424 b 420 361 368 319 296 319 b 262 319 174 330 174 422 b 174 521 267 529 296 529 b 372 529 420 482 420 424 z m 438 152 b 438 70 360 43 301 43 b 254 43 158 58 158 148 b 158 246 254 263 296 263 b 373 263 438 222 438 152 z"},"\\":{"x_min":0,"x_max":600,"ha":600,"o":"m 503 -122 l 138 701 l 92 681 l 457 -142 z"},"e":{"x_min":0,"x_max":600,"ha":600,"o":"m 536 51 l 519 104 b 441 60 363 42 316 42 b 269 42 224 48 186 72 b 150 95 120 149 120 202 l 120 210 l 530 210 b 530 336 463 447 302 447 b 169 447 63 355 63 217 b 63 99 132 -12 307 -12 b 388 -12 471 15 536 51 z m 471 265 l 122 265 b 130 324 189 391 302 391 b 440 391 471 290 471 265 z"},"b":{"x_min":0,"x_max":600,"ha":600,"o":"m 556 217 b 556 367 443 447 341 447 b 235 447 178 385 161 360 l 161 627 l 24 627 l 24 572 l 107 572 l 107 55 l 24 55 l 24 0 l 161 0 l 161 69 b 174 53 216 -12 341 -12 b 472 -12 556 108 556 217 z m 501 217 b 501 115 420 43 335 43 b 256 43 164 97 164 220 b 164 325 250 392 335 392 b 449 392 501 298 501 217 z"},"%":{"x_min":0,"x_max":600,"ha":600,"o":"m 355 498 b 355 563 315 622 229 622 b 154 622 106 562 106 497 b 106 431 155 373 231 373 b 302 373 355 430 355 498 z m 300 497 b 300 464 276 429 232 429 b 192 429 161 455 161 496 b 161 537 188 567 232 567 b 275 567 300 534 300 497 z m 471 113 b 471 178 432 237 346 237 b 271 237 222 177 222 112 b 222 46 272 -12 348 -12 b 419 -12 471 45 471 113 z m 417 112 b 417 79 393 44 349 44 b 309 44 278 70 278 111 b 278 152 305 182 349 182 b 392 182 417 149 417 112 z m 523 360 l 508 413 l 93 256 l 107 205 z"},"m":{"x_min":0,"x_max":600,"ha":600,"o":"m 600 0 l 600 55 l 548 55 l 548 317 b 548 360 536 409 497 433 b 479 444 461 447 441 447 b 390 447 351 412 323 376 b 309 413 275 447 224 447 b 180 447 150 419 122 389 l 122 434 l 15 434 l 15 379 l 67 379 l 67 0 l 173 0 l 173 55 l 122 55 l 122 328 b 142 357 166 391 211 391 b 277 391 280 315 280 305 l 280 0 l 387 0 l 387 55 l 335 55 l 335 317 b 339 327 374 392 429 392 b 440 392 451 390 460 384 b 493 361 493 324 493 285 l 493 0 z"},"#":{"x_min":0,"x_max":600,"ha":600,"o":"m 523 140 l 523 193 l 415 193 l 425 356 l 523 356 l 523 410 l 428 410 l 442 639 l 391 639 l 378 410 l 234 410 l 248 639 l 196 639 l 182 410 l 68 410 l 68 356 l 179 356 l 169 193 l 68 193 l 68 140 l 165 140 l 152 -77 l 203 -77 l 217 140 l 360 140 l 347 -77 l 398 -77 l 411 140 z m 375 356 l 364 193 l 220 193 l 230 356 z"},",":{"x_min":0,"x_max":600,"ha":600,"o":"m 350 121 l 255 121 l 181 -129 l 246 -129 z"},"n":{"x_min":0,"x_max":600,"ha":600,"o":"m 576 0 l 576 55 l 494 55 l 494 311 b 494 348 487 392 457 417 b 436 434 405 447 357 447 b 288 447 221 417 170 371 l 170 434 l 33 434 l 33 378 l 116 378 l 116 55 l 33 55 l 33 0 l 253 0 l 253 55 l 170 55 l 170 310 b 212 356 280 392 341 392 b 384 392 440 379 440 310 l 440 55 l 358 55 l 358 0 z"},"h":{"x_min":0,"x_max":600,"ha":600,"o":"m 582 0 l 582 55 l 500 55 l 500 309 b 500 372 479 447 363 447 b 293 447 227 410 176 365 l 176 627 l 37 627 l 37 572 l 122 572 l 122 55 l 39 55 l 39 0 l 259 0 l 259 55 l 176 55 l 176 305 b 223 348 284 392 349 392 b 431 392 446 342 446 287 l 446 55 l 364 55 l 364 0 z"},"z":{"x_min":0,"x_max":600,"ha":600,"o":"m 506 0 l 506 147 l 451 147 l 451 55 l 180 55 l 506 383 l 506 434 l 116 434 l 116 290 l 170 290 l 170 379 l 427 379 l 103 52 l 103 0 z"},"B":{"x_min":0,"x_max":600,"ha":600,"o":"m 547 150 b 547 228 488 271 424 283 b 438 290 470 307 485 329 b 501 353 509 385 509 414 b 509 442 502 469 491 492 b 456 566 374 572 298 572 l 42 572 l 42 517 l 120 517 l 120 55 l 42 55 l 42 0 l 354 0 b 415 0 475 10 512 54 b 534 80 547 115 547 150 z m 454 418 b 454 389 443 360 422 342 b 388 313 343 310 296 310 l 175 310 l 175 517 l 262 517 b 290 517 324 517 368 512 b 415 507 454 469 454 418 z m 492 149 b 492 119 476 88 444 73 b 407 56 370 55 328 55 l 175 55 l 175 254 l 321 254 b 367 254 414 246 453 222 b 477 207 492 179 492 149 z"},"K":{"x_min":0,"x_max":600,"ha":600,"o":"m 612 0 l 612 55 l 497 55 b 462 127 408 211 355 277 b 355 277 328 311 315 327 l 503 517 l 576 517 l 576 572 l 376 572 l 376 517 l 435 517 l 195 278 l 195 517 l 274 517 l 274 572 l 61 572 l 61 517 l 141 517 l 141 55 l 61 55 l 61 0 l 275 0 l 275 55 l 195 55 l 195 211 l 278 294 l 313 249 b 371 174 422 90 464 0 z"},"R":{"x_min":0,"x_max":600,"ha":600,"o":"m 580 0 l 580 55 l 479 55 b 446 110 388 196 349 245 b 414 256 502 298 502 415 b 502 501 455 572 336 572 l 43 572 l 43 517 l 122 517 l 122 55 l 43 55 l 43 0 l 255 0 l 255 55 l 176 55 l 176 243 l 289 243 b 327 195 413 69 451 0 z m 448 413 b 448 303 336 298 276 298 l 176 298 l 176 517 l 318 517 b 362 517 411 513 433 470 b 442 453 448 434 448 413 z"},"T":{"x_min":0,"x_max":600,"ha":600,"o":"m 562 371 l 562 572 l 47 572 l 47 371 l 102 371 l 102 517 l 277 517 l 277 55 l 154 55 l 154 0 l 455 0 l 455 55 l 332 55 l 332 517 l 507 517 l 507 371 z"},"P":{"x_min":0,"x_max":600,"ha":600,"o":"m 553 387 b 553 474 503 572 351 572 l 83 572 l 83 517 l 161 517 l 161 55 l 83 55 l 83 0 l 369 0 l 369 55 l 216 55 l 216 204 l 347 204 b 412 204 479 218 519 274 b 541 305 553 346 553 387 z m 498 387 b 498 361 491 336 479 316 b 448 264 386 259 329 259 l 216 259 l 216 517 l 347 517 b 401 517 452 503 482 454 b 493 436 498 410 498 387 z"},"|":{"x_min":0,"x_max":600,"ha":600,"o":"m 326 -249 l 326 750 l 275 750 l 275 -249 z"},"t":{"x_min":0,"x_max":600,"ha":600,"o":"m 515 44 l 509 98 b 457 78 382 43 314 43 b 287 43 261 47 234 61 b 205 76 197 112 197 143 l 197 379 l 455 379 l 455 434 l 197 434 l 197 563 l 143 563 l 143 434 l 72 434 l 72 379 l 143 379 l 143 119 b 143 6 251 -12 303 -12 b 377 -12 452 17 515 44 z"},"M":{"x_min":0,"x_max":600,"ha":600,"o":"m 577 0 l 577 55 l 530 55 l 530 517 l 576 517 l 576 572 l 431 572 l 301 232 l 169 572 l 21 572 l 21 517 l 69 517 l 69 55 l 21 55 l 21 0 l 185 0 l 185 55 l 124 55 l 124 517 l 133 517 l 279 141 l 321 141 l 464 517 l 475 517 l 475 55 l 417 55 l 417 0 z"},"g":{"x_min":0,"x_max":600,"ha":600,"o":"m 565 379 l 565 434 l 449 434 l 449 376 b 415 414 348 447 268 447 b 115 447 35 334 35 239 b 35 142 109 35 267 35 b 333 35 408 59 449 108 l 449 -17 b 449 -110 398 -140 278 -140 b 210 -140 144 -122 91 -110 l 80 -164 b 132 -176 217 -194 300 -194 b 425 -194 503 -138 503 -29 l 503 379 z m 446 241 b 446 155 368 90 268 90 b 166 90 90 158 90 239 b 90 330 174 392 270 392 b 410 392 446 296 446 241 z"},"j":{"x_min":0,"x_max":600,"ha":600,"o":"m 378 531 l 378 654 l 307 654 l 307 531 z m 398 -18 l 398 434 l 85 434 l 85 379 l 343 379 l 343 -3 b 343 -18 343 -43 339 -57 b 320 -136 260 -139 226 -139 l 217 -139 b 174 -139 127 -132 93 -125 l 85 -178 b 133 -189 178 -193 227 -193 b 254 -193 288 -188 311 -177 b 372 -148 398 -100 398 -18 z"},"i":{"x_min":0,"x_max":600,"ha":600,"o":"m 333 531 l 333 654 l 262 654 l 262 531 z m 506 0 l 506 55 l 333 55 l 333 434 l 126 434 l 126 379 l 278 379 l 278 55 l 102 55 l 102 0 z"},"y":{"x_min":0,"x_max":600,"ha":600,"o":"m 590 379 l 590 434 l 411 434 l 411 379 l 467 379 l 301 80 l 148 379 l 212 379 l 212 434 l 21 434 l 21 379 l 88 379 l 272 26 l 175 -139 l 66 -139 l 66 -194 l 320 -194 l 320 -139 l 235 -139 l 527 379 z"},"@":{"x_min":0,"x_max":600,"ha":600,"o":"m 565 297 b 565 374 542 420 508 461 b 460 518 388 543 314 543 b 136 543 39 420 39 260 b 39 138 105 -14 294 -14 b 378 -14 464 16 529 55 l 514 91 b 426 40 357 23 291 23 b 216 23 149 55 109 123 b 87 160 75 212 75 260 b 75 370 135 506 309 506 b 424 506 528 442 528 300 b 528 211 483 143 433 143 b 407 143 380 163 380 198 b 380 221 389 245 395 266 l 430 392 l 393 392 l 379 342 b 362 397 330 398 317 398 b 252 398 180 302 180 205 b 180 178 184 150 203 129 b 214 116 230 107 252 107 b 293 107 329 137 348 170 b 353 141 383 107 430 107 b 510 107 565 190 565 297 z m 356 303 b 356 238 315 143 257 143 b 223 143 216 181 216 203 b 216 257 262 361 312 361 b 349 361 356 320 356 303 z"},".":{"x_min":0,"x_max":600,"ha":600,"o":"m 372 46 b 372 77 344 107 304 107 b 266 107 234 80 234 47 b 234 17 263 -12 305 -12 b 337 -12 372 12 372 46 z"},"p":{"x_min":0,"x_max":600,"ha":600,"o":"m 550 221 b 550 258 542 295 527 326 b 487 409 413 447 336 447 b 250 447 190 411 154 364 l 154 434 l 17 434 l 17 379 l 100 379 l 100 -139 l 17 -139 l 17 -194 l 307 -194 l 307 -139 l 154 -139 l 154 69 b 185 29 240 -12 331 -12 b 453 -12 550 86 550 221 z m 495 220 b 495 109 410 43 328 43 b 235 43 157 114 157 219 b 157 310 222 392 330 392 b 461 392 495 278 495 220 z"},"X":{"x_min":0,"x_max":600,"ha":600,"o":"m 569 0 l 569 55 l 505 55 l 329 300 l 486 517 l 550 517 l 550 572 l 362 572 l 362 517 l 424 517 l 297 343 l 171 517 l 246 517 l 246 572 l 42 572 l 42 517 l 108 517 l 265 300 l 87 55 l 22 55 l 22 0 l 244 0 l 244 55 l 150 55 l 298 256 l 443 55 l 359 55 l 359 0 z"},"*":{"x_min":0,"x_max":600,"ha":600,"o":"m 487 399 l 470 470 l 326 418 l 332 572 l 260 572 l 266 418 l 120 470 l 104 399 l 245 362 l 158 238 l 219 204 l 297 322 l 372 204 l 433 238 l 347 362 z"},"Y":{"x_min":0,"x_max":600,"ha":600,"o":"m 575 517 l 575 572 l 380 572 l 380 517 l 449 517 l 307 277 l 163 517 l 233 517 l 233 572 l 35 572 l 35 517 l 103 517 l 280 222 l 280 55 l 156 55 l 156 0 l 458 0 l 458 55 l 335 55 l 335 222 l 508 517 z"},"c":{"x_min":0,"x_max":600,"ha":600,"o":"m 532 67 l 510 122 b 485 100 407 42 326 42 b 170 42 127 155 127 220 b 127 309 199 391 313 391 b 370 391 423 377 466 341 l 466 272 l 521 272 l 521 447 l 466 447 l 466 399 b 420 430 372 447 314 447 b 141 447 72 314 72 223 b 72 75 183 -12 309 -12 b 402 -12 473 21 532 67 z"},"!":{"x_min":0,"x_max":600,"ha":600,"o":"m 345 572 l 267 572 l 285 181 l 329 181 z m 375 49 b 375 81 341 108 309 108 b 267 108 238 78 238 48 b 238 18 268 -12 307 -12 b 347 -12 375 16 375 49 z"},"/":{"x_min":0,"x_max":600,"ha":600,"o":"m 504 680 l 457 701 l 92 -122 l 139 -143 z"},"[":{"x_min":0,"x_max":600,"ha":600,"o":"m 490 -97 l 490 -42 l 364 -42 l 364 593 l 490 593 l 490 648 l 309 648 l 309 -97 z"},"6":{"x_min":0,"x_max":600,"ha":600,"o":"m 490 527 l 490 584 l 419 584 b 351 584 290 568 239 534 b 156 478 97 391 97 241 b 97 48 220 -13 307 -13 b 411 -13 486 61 486 161 b 486 254 423 335 313 335 b 227 335 180 288 151 250 b 152 359 199 450 280 494 b 319 515 370 529 415 529 b 417 529 418 527 420 527 b 420 527 441 528 462 528 b 472 528 483 528 490 527 z m 433 160 b 433 106 399 42 300 42 b 243 42 193 75 172 124 b 166 138 156 166 153 189 b 180 240 239 280 304 280 b 348 280 392 262 415 226 b 426 208 433 183 433 160 z"},"r":{"x_min":0,"x_max":600,"ha":600,"o":"m 568 358 b 565 378 561 396 550 413 b 534 438 508 447 477 447 b 382 447 319 373 254 318 l 254 434 l 74 434 l 74 379 l 199 379 l 199 55 l 74 55 l 74 0 l 448 0 l 448 55 l 254 55 l 254 256 b 362 360 407 393 459 393 b 484 393 507 387 514 353 z"},"2":{"x_min":0,"x_max":600,"ha":600,"o":"m 478 0 l 478 126 l 424 126 l 424 55 l 154 55 l 325 194 b 431 280 478 329 478 408 b 478 437 470 467 457 491 b 422 556 346 584 285 584 b 211 584 148 557 98 505 l 98 434 l 152 434 b 152 501 224 530 281 530 b 357 530 425 482 425 402 b 425 387 421 373 416 359 b 404 326 325 255 299 235 l 75 59 l 75 0 z"},"{":{"x_min":0,"x_max":600,"ha":600,"o":"m 420 -230 l 420 -175 b 363 -171 325 -156 325 -90 l 325 80 b 325 129 324 217 248 267 b 324 323 325 401 325 450 l 325 624 b 325 690 363 705 420 709 l 420 764 b 371 762 312 751 288 702 b 274 673 270 641 270 608 l 270 488 b 270 357 251 327 180 293 l 180 241 b 253 207 270 177 270 46 l 270 -74 b 270 -107 274 -139 288 -168 b 312 -217 371 -228 420 -230 z"},"9":{"x_min":0,"x_max":600,"ha":600,"o":"m 506 326 b 506 399 490 486 432 538 b 399 568 351 584 303 584 b 192 584 117 500 117 406 b 117 315 175 225 296 225 b 355 225 419 252 452 305 b 442 142 369 79 278 54 b 249 46 216 42 183 42 b 176 42 170 44 163 44 l 111 44 l 111 -13 l 178 -13 b 216 -13 255 -8 294 1 b 412 30 506 138 506 326 z m 450 365 b 436 328 376 281 305 281 b 218 281 171 336 171 407 b 171 479 226 529 304 529 b 343 529 387 514 412 480 b 433 451 449 405 450 365 z"}," ":{"x_min":0,"x_max":600,"ha":600,"o":""},"I":{"x_min":0,"x_max":600,"ha":600,"o":"m 491 0 l 491 55 l 328 55 l 328 517 l 491 517 l 491 572 l 109 572 l 109 517 l 273 517 l 273 55 l 109 55 l 109 0 z"},"H":{"x_min":0,"x_max":600,"ha":600,"o":"m 569 0 l 569 55 l 491 55 l 491 517 l 569 517 l 569 572 l 359 572 l 359 517 l 437 517 l 437 308 l 163 308 l 163 517 l 242 517 l 242 572 l 30 572 l 30 517 l 109 517 l 109 55 l 30 55 l 30 0 l 242 0 l 242 55 l 163 55 l 163 253 l 437 253 l 437 55 l 359 55 l 359 0 z"},"4":{"x_min":0,"x_max":600,"ha":600,"o":"m 484 0 l 484 55 l 390 55 l 390 162 l 484 162 l 484 217 l 390 217 l 390 572 l 310 572 l 61 211 l 61 162 l 335 162 l 335 55 l 225 55 l 225 0 z m 335 524 l 335 217 l 122 217 z"},"~":{"x_min":0,"x_max":600,"ha":600,"o":"m 525 238 l 475 274 b 462 253 431 198 397 198 b 379 198 349 215 316 233 b 279 253 251 267 209 267 b 151 267 128 230 91 187 l 138 150 b 158 178 177 213 212 213 b 231 213 265 196 300 178 b 335 161 372 143 396 143 b 456 143 495 191 525 238 z"},"D":{"x_min":0,"x_max":600,"ha":600,"o":"m 558 299 b 558 463 480 542 375 565 b 345 571 312 572 276 572 l 34 572 l 34 517 l 112 517 l 112 55 l 34 55 l 34 0 l 248 0 b 292 0 334 2 374 9 b 480 28 558 116 558 299 z m 503 291 b 503 234 490 177 463 132 b 425 69 350 55 276 55 l 166 55 l 166 517 l 265 517 b 353 517 393 514 443 471 b 475 443 503 378 503 291 z"},"^":{"x_min":0,"x_max":600,"ha":600,"o":"m 501 486 l 501 532 b 406 607 363 652 325 750 l 274 750 b 241 657 193 602 100 531 l 100 485 b 175 512 245 560 301 616 b 359 557 426 512 501 486 z"},"0":{"x_min":0,"x_max":600,"ha":600,"o":"m 496 298 b 496 344 492 432 453 497 b 418 556 374 584 307 584 b 287 584 267 581 249 576 b 166 551 130 460 119 378 b 115 347 112 302 112 289 b 112 193 132 -12 304 -12 b 489 -12 496 204 496 298 z m 442 294 l 442 285 b 442 184 425 43 307 43 b 219 43 192 118 186 142 b 174 188 167 238 167 288 b 167 403 194 529 304 529 b 348 529 387 506 408 467 b 435 416 441 355 442 294 z"},"F":{"x_min":0,"x_max":600,"ha":600,"o":"m 554 382 l 554 572 l 76 572 l 76 517 l 153 517 l 153 55 l 77 55 l 77 0 l 339 0 l 339 55 l 208 55 l 208 258 l 369 258 l 369 185 l 424 185 l 424 387 l 369 387 l 369 313 l 208 313 l 208 517 l 499 517 l 499 382 z"},"`":{"x_min":0,"x_max":600,"ha":600,"o":"m 458 521 l 193 667 l 159 590 l 447 490 z"},"k":{"x_min":0,"x_max":600,"ha":600,"o":"m 567 0 l 567 55 l 473 55 b 434 102 393 149 350 189 l 277 257 l 432 379 l 528 379 l 528 434 l 312 434 l 312 379 l 358 379 l 182 242 l 182 627 l 43 627 l 43 572 l 128 572 l 128 55 l 45 55 l 45 0 l 182 0 l 182 187 l 239 229 b 279 196 361 117 410 55 l 355 55 l 355 0 z"},"u":{"x_min":0,"x_max":600,"ha":600,"o":"m 569 0 l 569 55 l 487 55 l 487 434 l 350 434 l 350 379 l 433 379 l 433 136 b 393 86 341 42 277 42 b 250 42 221 48 200 63 b 170 85 163 121 163 157 l 163 434 l 26 434 l 26 379 l 109 379 l 109 130 b 109 89 121 48 156 21 b 187 -3 226 -12 266 -12 b 305 -12 357 -6 433 67 l 433 0 z"},"]":{"x_min":0,"x_max":600,"ha":600,"o":"m 293 -97 l 293 648 l 112 648 l 112 593 l 238 593 l 238 -42 l 112 -42 l 112 -97 z"},"U":{"x_min":0,"x_max":600,"ha":600,"o":"m 600 517 l 600 572 l 361 572 l 361 517 l 467 517 l 467 199 b 467 76 392 43 311 43 b 274 43 236 51 207 72 b 161 105 153 163 153 217 l 153 517 l 262 517 l 262 572 l 18 572 l 18 517 l 99 517 l 99 227 b 99 154 103 80 161 33 b 201 1 258 -12 312 -12 b 362 -12 424 2 463 37 b 504 73 521 134 521 198 l 521 517 z"},"o":{"x_min":0,"x_max":600,"ha":600,"o":"m 554 217 b 554 305 497 447 305 447 b 164 447 52 360 52 217 b 52 84 150 -12 306 -12 b 458 -12 554 86 554 217 z m 499 216 b 499 116 419 43 305 43 b 170 43 107 135 107 216 b 107 309 180 392 304 392 b 465 392 499 270 499 216 z"},"N":{"x_min":0,"x_max":600,"ha":600,"o":"m 586 517 l 586 572 l 348 572 l 348 517 l 455 517 l 455 75 l 170 572 l 14 572 l 14 517 l 95 517 l 95 55 l 15 55 l 15 0 l 258 0 l 258 55 l 150 55 l 150 494 l 437 0 l 510 0 l 510 517 z"},"+":{"x_min":0,"x_max":600,"ha":600,"o":"m 514 190 l 514 244 l 328 244 l 328 432 l 274 432 l 274 244 l 85 244 l 85 190 l 274 190 l 274 2 l 328 2 l 328 190 z"},"G":{"x_min":0,"x_max":600,"ha":600,"o":"m 579 207 l 579 262 l 321 262 l 321 207 l 473 207 l 473 76 b 409 55 373 43 318 43 b 156 43 90 158 90 284 b 90 460 201 529 300 529 b 368 529 429 494 473 446 l 473 371 l 528 371 l 528 584 l 473 584 l 473 518 b 425 559 357 584 289 584 b 141 584 35 448 35 285 b 35 144 115 -12 319 -12 b 392 -12 465 8 528 34 l 528 207 z"},"q":{"x_min":0,"x_max":600,"ha":600,"o":"m 582 -194 l 582 -139 l 499 -139 l 499 379 l 582 379 l 582 434 l 445 434 l 445 366 b 415 408 349 447 267 447 b 190 447 112 409 72 326 b 57 295 49 258 49 221 b 49 86 146 -12 268 -12 b 330 -12 398 13 445 70 l 445 -139 l 292 -139 l 292 -194 z m 445 219 b 445 105 353 43 271 43 b 189 43 104 109 104 220 b 104 278 138 392 269 392 b 377 392 445 312 445 219 z"},"d":{"x_min":0,"x_max":600,"ha":600,"o":"m 583 0 l 583 55 l 503 55 l 503 627 l 313 627 l 313 572 l 449 572 l 449 369 b 400 431 332 447 278 447 b 143 447 51 347 51 218 b 51 102 128 -12 274 -12 b 345 -12 410 18 449 76 l 449 0 z m 444 222 b 444 116 375 43 275 43 b 165 43 106 131 106 218 b 106 310 175 392 275 392 b 410 392 444 291 444 222 z"},"1":{"x_min":0,"x_max":600,"ha":600,"o":"m 507 0 l 507 55 l 336 55 l 336 584 l 105 533 l 105 478 l 281 514 l 281 55 l 105 55 l 105 0 z"},"5":{"x_min":0,"x_max":600,"ha":600,"o":"m 500 171 b 500 265 433 351 308 351 b 262 351 215 339 178 321 l 178 517 l 469 517 l 469 572 l 123 572 l 123 267 l 162 258 b 225 296 278 296 293 296 b 392 296 446 233 446 169 b 446 97 385 43 279 43 b 217 43 156 61 101 82 l 90 27 b 151 7 217 -12 284 -12 b 455 -12 500 104 500 171 z"}}}
